<svg xmlns="http://www.w3.org/2000/svg" viewBox="0 0 24 24" width="24" height="24" aria-hidden="true">
  <!-- WhatsApp handset glyph in brand green, no badge background -->
  <path d="M20.5 3.5c-.7-.7-1.8-.7-2.5 0l-1.2 1.2c-.3.3-.4.7-.3 1.1.1.4.4.7.8.8l.9.2c-.6 1.5-2 3.4-4.9 6.3-2.9 2.9-4.8 4.3-6.3 4.9l-.2-.9c-.1-.4-.4-.7-.8-.8-.4-.1-.8 0-1.1.3L3.5 18c-.7.7-.7 1.8 0 2.5 2 2 5 3.2 8.1 3.2 6.1 0 11-4.9 11-11 0-3.1-1.2-6.1-3.1-8.1z" fill="#25D366"/>
  <path d="M16.2 14.6c-.3-.2-1.9-1-2.2-1.1-.3-.1-.6 0-.9.2-.2.2-.6.5-.9.6-.3.1-1.1.4-2 .1-.9-.3-1.9-1.1-3.2-2.4-1.3-1.3-2.1-2.3-2.4-3.2-.3-.9 0-1.7.1-2 .1-.3.4-.7.6-.9.2-.3.3-.6.2-.9-.1-.3-.9-1.9-1.1-2.2-.2-.3-.6-.4-.9-.3-.8.3-1.9 1-2.5 1.6-.6.6-1.1 1.6-1.1 2.8 0 1.2.2 2.6 1.1 4.1 1 1.9 3 4 6.2 7.2 3.2 3.2 5.3 5.2 7.2 6.2 1.5.9 2.9 1.1 4.1 1.1 1.2 0 2.2-.5 2.8-1.1.6-.6 1.3-1.7 1.6-2.5.1-.3 0-.7-.3-.9-.3-.2-1.9-1-2.2-1.1z" fill="#fff"/>
</svg>
